<svg xmlns="http://www.w3.org/2000/svg" enable-background="new 0 0 32 32" viewBox="0 0 32 32" id="amazon">
  <path fill="#FFE6E2" d="M26,32H6c-3.314,0-6-2.686-6-6V6c0-3.314,2.686-6,6-6h20c3.314,0,6,2.686,6,6v20C32,29.314,29.314,32,26,32z"></path>
  <path fill="#FD907E" d="M21.785,21.179c-6.527,3.126-10.573,0.507-13.163-1.082c-0.159-0.107-0.435,0.021-0.195,0.296C9.294,21.446,12.12,24,15.813,24c3.693,0,5.894-2.036,6.166-2.393v0.001C22.255,21.25,22.05,21.047,21.785,21.179z"></path>
  <path fill="#FC573B" d="M17.174,12.668c-1.721,0.064-5.989,0.554-5.989,4.197c0,3.911,4.887,4.072,6.485,1.543c0.23,0.364,1.251,1.339,1.6,1.672l2.007-2c0,0-1.141-0.904-1.141-1.886V10.94c0-0.904-0.865-2.94-3.968-2.94c-3.11,0-4.76,1.964-4.76,3.725l2.597,0.243C14.58,10.2,15.92,10.2,15.92,10.2C17.358,10.197,17.174,11.265,17.174,12.668L17.174,12.668z M17.174,15.767c0,2.857-2.975,2.429-2.975,0.614c0-1.685,1.784-2.025,2.975-2.064V15.767z"></path>
  <path fill="#FD907E" d="M23.615,20.146c-0.176-0.232-1.07-0.267-1.625-0.203c-0.559,0.071-1.407,0.421-1.325,0.625c0.035,0.082,0.113,0.047,0.495,0.011c0.389-0.04,1.466-0.182,1.696,0.114c0.234,0.303-0.343,1.732-0.449,1.964s0.035,0.296,0.23,0.136c0.184-0.15,0.519-0.543,0.749-1.107h-0.001C23.615,21.114,23.746,20.328,23.615,20.146z"></path>
</svg>
